<svg id="Layer_1" data-name="Layer 1" xmlns="http://www.w3.org/2000/svg" viewBox="0 0 300 300"><defs><style>.cls-1{fill:#fff;}.cls-2{fill:#d43922;}.cls-3{fill:#006a98;}</style></defs><title>Artboard 3-logo</title><circle class="cls-1" cx="149.85" cy="149.84" r="149.35"/><g id="_Group_" data-name="&lt;Group&gt;"><path class="cls-2" d="M283,144.3a86.12,86.12,0,0,1-22.79-18.79c-1.5-1.76-2.74-3.37-3.7-4.74-.44-8.7-.84-17.47-1.19-25.72-.12-2.87-.24-5.67-.36-8.37v0c.82,2.07,1.7,4.12,2.62,6.15l.87,1.84L259,95.9l1.51,3c1.06,2,2.12,3.93,3.3,5.83.56,1,1.16,1.91,1.77,2.85s1.2,1.89,1.86,2.8l2,2.73,2.06,2.66c.68.9,1.44,1.72,2.16,2.58l1.1,1.27,1.16,1.22c.78.81,1.51,1.66,2.34,2.43l2.43,2.32c.83.77,1.7,1.47,2.56,2.2.43.37.85.74,1.28,1.09l1.34,1c.91.66,1.77,1.38,2.71,2l2.82,1.87c.93.63,1.93,1.14,2.9,1.71a32.73,32.73,0,0,0,3,1.6l1.86.92c-.11-1.34-.23-2.67-.37-4-.94-.45-1.83-1-2.72-1.52s-1.86-1.07-2.74-1.68L290.6,129c-.89-.6-1.7-1.3-2.55-1.94l-1.26-1c-.42-.34-.81-.7-1.21-1.06-.8-.72-1.61-1.39-2.39-2.14l-2.29-2.25c-.77-.75-1.45-1.57-2.19-2.35L277.62,117l-1-1.24c-.67-.84-1.38-1.63-2-2.5l-1.93-2.58-1.82-2.65c-.63-.88-1.17-1.81-1.74-2.72s-1.15-1.82-1.66-2.76c-1.1-1.85-2.09-3.76-3.08-5.68L262.92,94l-1.32-2.95c-.86-2-1.67-4-2.43-6-.52-1.37-1-2.76-1.47-4.14-.92-2.7-1.75-5.43-2.49-8.17-.35-1.33-.69-2.68-1-4-.2-5.12-.36-9.31-.47-12.24s-.17-4.56-.17-4.56h-8.79v2.32H230.49V51.93h-8l-.34,6.71c-9.54,15.46-24.16,33.63-43,40.42l-1.09.36a46.58,46.58,0,0,0,4.31,3.71C196.51,97.6,209.68,86,221.69,68.52L220.26,97c1.24-1.27,2.48-2.64,3.74-4.12,2.05-2.42,4-5,6.05-7.87l.12-8.32h5.3c1.18-2,2.37-4,3.55-6.2h-8.76l.17-12h14.34V66q-1.45,2.9-3,5.72c0,.08-.09.17-.13.25-2.22,4.05-4.59,8-7.15,11.86q-2.17,3.26-4.53,6.38c-1.19,1.58-2.42,3.14-3.7,4.64a77.93,77.93,0,0,1-6.23,6.57c-1.1,1-2.22,2.05-3.4,3A37.56,37.56,0,0,1,205.28,111a22.16,22.16,0,0,1-3.09.86c-.52.09-1,.23-1.55.31l-1.58.14-.79.07c-.26,0-.5,0-.75,0l-1.48,0h-.38l-.43-.07-.87-.13-.88-.14-.43-.06-.18,0A36.43,36.43,0,0,1,181.24,106c-.73-.53-1.42-1.1-2.12-1.67a56.93,56.93,0,0,1-4.26-3.94c-1.15-1.18-2.29-2.39-3.37-3.65a113.75,113.75,0,0,1-14.67-23.19,222,222,0,0,1-10.55-25.72c-3-8.78-5.63-17.73-7.92-26.76q-1.7-6.77-3.18-13.6-.69-3.23-1.32-6.46c-1.65.18-3.31.39-4.95.62.45,2.3.92,4.59,1.4,6.89q1.49,6.91,3.23,13.78c2.32,9.15,5,18.22,8,27.16a225.36,225.36,0,0,0,10.78,26.3A119.51,119.51,0,0,0,167.7,100c.43.51.88,1,1.31,1.48,1.36,1.52,2.79,3,4.28,4.39a54.43,54.43,0,0,0,5,4.19,45.07,45.07,0,0,0,3.91,2.59l15,4.72h.25c.34,0,.69,0,1,0l1-.09,1.92-.17c.64-.1,1.26-.25,1.89-.37a27.23,27.23,0,0,0,3.68-1,42.26,42.26,0,0,0,12.77-7.36l.08-.06a77.74,77.74,0,0,0,10.1-10c.06-.08.14-.16.21-.24a122.73,122.73,0,0,0,8.58-11.5c1.08-1.61,2.11-3.26,3.13-4.91s2-3.37,3-5.08V89.25h-4.31q-2.17,3.18-4.31,6h8.62V108H229.71l.08-5.13a75.73,75.73,0,0,1-8.14,7.72c-.73.59-1.44,1.13-2.16,1.65l-.6,11.89,10.54,3.32.15-10.42h15.18V174.4l.15.07c5.75,2.43,11.14,5,16.11,7.68-.74-3-1.5-11-2.27-21.69-.12-1.69-.24-3.45-.36-5.27-.23-3.44-.45-7.1-.67-10.9l-.12-1.92c0-.64-.07-1.26-.11-1.9-.08-1.39-.15-2.82-.23-4.24q-.22-4.12-.45-8.35c1.11,1.32,2.36,2.74,3.76,4.2a86.64,86.64,0,0,0,8.76,7.95A92.21,92.21,0,0,0,281,147.85l-19.77-6.22c0,.62.08,1.22.13,1.83l26.06,7.73,12,3.56c0-.36,0-.73,0-1.09,0-.63,0-1.26,0-1.9A94.27,94.27,0,0,1,283,144.3Z"/><path class="cls-2" d="M163,106.58c.66,0,1.36.06,2.13.06a42.19,42.19,0,0,0,4.4-.25q-2.08-2.08-4.13-4.5l-.21-.25a25.08,25.08,0,0,1-6.4-.69c-11.08-4.41-20.43-11.72-28.29-20.43l.23,7.42a82.56,82.56,0,0,0,19.92,14.76Z"/><path class="cls-2" d="M262.24,156.19c17.89,4.64,30.49,8.13,36.41,9.82q.48-4.39.7-8.87c-5.76-1.8-19.15-6-37.88-11.7C261.73,149.22,262,152.81,262.24,156.19Z"/><path class="cls-2" d="M218.68,128.26l-27-8.49a3.83,3.83,0,0,1-1-.23c-1.21-.36-2.42-.77-3.6-1.23l-55.89-17.57.13,4.21,87.29,25.86,10.78,3.2,12.44,3.67v-2.15l-12.41-3.89Z"/><path class="cls-2" d="M218.47,132.44c-25.71-7.69-55.6-16.48-87.14-25.46l.59,19.13c32.11,6.54,61.21,13.11,85.91,19q5.82,1.39,11.31,2.73c4.37,1.07,8.59,2.11,12.63,3.12V139.45l-12.47-3.76Z"/><path class="cls-2" d="M217,162.62a93.89,93.89,0,0,1,11.88,6.26l.23-15.88c-3.7-.91-7.55-1.83-11.49-2.78Z"/><path class="cls-2" d="M58.27,77.81,24.95,67.34c-1.12,1.69-2.21,3.41-3.27,5.14L57.63,83.13l20.21,6,20.9,6.19V90.53L78.17,84.07Z"/><path class="cls-2" d="M100.73,37V26.21c-2.1-6.18-3.66-11.69-4.79-16-1.57.61-3.15,1.24-4.69,1.9a224,224,0,0,0,8,24.93Z"/><path class="cls-2" d="M126.91,125.09l-.6-19.54-.07-2.1-.13-4.3L126,94.94l-.38-12.48-.25-8.15L123.17,2.53a148.57,148.57,0,0,0-16.47,4V43h-29l1-24.84a152.51,152.51,0,0,0-15.05,9.35c-1.15,13.71-2.93,30-4.86,46.31L78.45,80l1.7-25.73h23.57v93.15a180.44,180.44,0,0,1,23.93,1.74l-.58-18.92Z"/><path class="cls-2" d="M57.22,86.45C44.5,83,31.83,79.7,19.34,76.51A148.37,148.37,0,0,0,7.28,104.17c15.86,2.32,31.48,4.81,46.75,7.4q11.17,1.88,22.06,3.84,11.5,2.06,22.65,4.18V97.8Q88.24,94.88,77.65,92,67.43,89.2,57.22,86.45Z"/><path class="cls-2" d="M48.33,153.31c8.14-1.67,16.72-3.13,25.52-4.16l1.91-28.72q-11.05-2-22.38-3.92C50.55,137.85,48.33,153.31,48.33,153.31Z"/><path class="cls-3" d="M261,182.14c-5-2.65-10.35-5.25-16.11-7.68,1.94,1,22.88,11.94,36.75,46.33a150.26,150.26,0,0,0,8.8-19.55A204.68,204.68,0,0,0,261,182.14Z"/><path class="cls-3" d="M228.84,168.88A93.89,93.89,0,0,0,217,162.62q-2.88-1.28-6-2.49c1,.49,31.84,16.18,31.84,50.79,0,23.17-17.58,53.83-33.75,76.44a150,150,0,0,0,52-37.29C260.63,210.08,255.09,185.32,228.84,168.88Z"/><path class="cls-3" d="M192.33,190.33c0-10.42-2.57-17.75-6.15-22.91a48,48,0,0,0-15.75-2.32,31,31,0,0,0-4,.29c6.5,4,10.63,10.77,10.63,23.63,0,20.39-24.48,56.33-96,61.16a170,170,0,0,0-9.66,27.18l.35.21C143.61,267.37,192.33,220.91,192.33,190.33Z"/><path class="cls-3" d="M92,229.48c44.52-2.6,72.09-15.3,72.09-40.46,0,0,1.65-13.64-9.24-20.31a76.3,76.3,0,0,0-9,4.53c2.09,3,3.47,7.24,3.47,13.44,0,20.38-26.4,23.69-44.47,24.17A192.78,192.78,0,0,0,92,229.48Z"/><path class="cls-3" d="M137.81,178.48A154,154,0,0,0,113.1,201c-.8.9-1.59,1.8-2.38,2.71C129.48,202.17,145.69,192.72,137.81,178.48Z"/><path class="cls-3" d="M149.84,149.84a149.13,149.13,0,0,0-17,.92c-1.16.13-2.38.28-3.62.45C104.43,154.57,64.52,166,10.55,204.72a149.21,149.21,0,0,0,12,23.82c78.78-73.26,127.33-74.22,127.33-74.22s-10.06,5-24.43,13.73h0c-27,16.4-69.32,45.85-88.79,79.67A150.36,150.36,0,0,0,67,274.53a172.8,172.8,0,0,1,8.44-24A194.88,194.88,0,0,1,86,229.76a202,202,0,0,1,12.52-18.84c13.44-18,29-32.42,43.62-41.25,2.17-1.31,4.33-2.5,6.45-3.55a67.66,67.66,0,0,1,10-4,40.64,40.64,0,0,1,11.82-2,63.09,63.09,0,0,1,9.27.65c26,3.8,29.23,23.82,29.23,35.12,0,53.5-63,84.29-103.19,97a149.42,149.42,0,0,0,44.11,6.61,151.51,151.51,0,0,0,21-1.46C249.73,222.11,247.13,149.84,149.84,149.84Z"/><path class="cls-3" d="M127.64,149.15a180.44,180.44,0,0,0-23.93-1.74h-3.1a245.21,245.21,0,0,0-26.77,1.74c-8.8,1-17.37,2.49-25.52,4.16A347.44,347.44,0,0,0,1.1,166.59,149.37,149.37,0,0,0,4.33,185c61.59-35.24,124.61-35.66,124.61-35.66Z"/></g></svg>